<?xml version="1.0" encoding="UTF-8"?><svg id="Layer_1" xmlns="http://www.w3.org/2000/svg" xmlns:xlink="http://www.w3.org/1999/xlink" viewBox="0 0 70 70"><defs><style>.cls-1{fill:none;}.cls-2{clip-path:url(#clippath);}.cls-3{fill:#ffbf00;}.cls-4{fill:#231f20;}</style><clipPath id="clippath"><rect class="cls-1" width="70" height="70"/></clipPath></defs><g class="cls-2"><rect class="cls-4" x="-1.82" y="16.82" width="10" height="100" transform="translate(-46.32 21.82) rotate(-45)"/><rect class="cls-3" x="5.25" y="9.75" width="10" height="100" transform="translate(-39.25 24.75) rotate(-45)"/><rect class="cls-4" x="12.32" y="2.68" width="10" height="100" transform="translate(-32.18 27.68) rotate(-45)"/><rect class="cls-3" x="19.39" y="-4.39" width="10" height="100" transform="translate(-25.1 30.61) rotate(-45)"/><rect class="cls-4" x="26.46" y="-11.46" width="10" height="100" transform="translate(-18.03 33.54) rotate(-45)"/><rect class="cls-3" x="33.54" y="-18.54" width="10" height="100" transform="translate(-10.96 36.46) rotate(-45)"/><rect class="cls-4" x="40.61" y="-25.61" width="10" height="100" transform="translate(-3.89 39.39) rotate(-45)"/><rect class="cls-3" x="47.68" y="-32.68" width="10" height="100" transform="translate(3.18 42.32) rotate(-45)"/><rect class="cls-4" x="54.75" y="-39.75" width="10" height="100" transform="translate(10.25 45.25) rotate(-45)"/><rect class="cls-3" x="61.82" y="-46.82" width="10" height="100" transform="translate(17.32 48.18) rotate(-45)"/></g></svg>